HIERARCHY
ROOT Hips
{
  OFFSET 13.6774 106.653 -34.4427
  CHANNELS 6 Xposition Yposition Zposition Zrotation Xrotation Yrotation
  JOINT ToSpine
  {
    OFFSET -2.69724 7.43032 -0.144315
    CHANNELS 3 Zrotation Xrotation Yrotation
    JOINT Spine
    {
      OFFSET -0.0310711 10.7595 1.96963
      CHANNELS 3 Zrotation Xrotation Yrotation
      JOINT Spine1
      {
        OFFSET 19.9056 3.91189 0.764692
        CHANNELS 3 Zrotation Xrotation Yrotation
        JOINT Neck
        {
          OFFSET 25.9749 7.03908 -0.130764
          CHANNELS 3 Zrotation Xrotation Yrotation
          JOINT Head
          {
            OFFSET 9.52751 0.295786 -0.907742
            CHANNELS 3 Zrotation Xrotation Yrotation
            End Site
            {
              OFFSET 16.4037 0.713936 2.7358
            }
          }
        }
        JOINT LeftShoulder
        {
          OFFSET 17.7449 4.33886 11.7777
          CHANNELS 3 Zrotation Xrotation Yrotation
          JOINT LeftArm
          {
            OFFSET 0.911315 1.27913 9.80584
            CHANNELS 3 Zrotation Xrotation Yrotation
            JOINT LeftForeArm
            {
              OFFSET 28.6126 1.18197 -3.53199
              CHANNELS 3 Zrotation Xrotation Yrotation
              JOINT LeftHand
              {
                OFFSET 27.5088 0.0218783 0.327423
                CHANNELS 3 Zrotation Xrotation Yrotation
                End Site
                {
                  OFFSET 18.6038 -0.000155887 0.382096
                }
              }
            }
          }
        }
        JOINT RightShoulder
        {
          OFFSET 17.1009 2.89543 -12.2328
          CHANNELS 3 Zrotation Xrotation Yrotation
          JOINT RightArm
          {
            OFFSET 1.4228 0.178766 -10.211
            CHANNELS 3 Zrotation Xrotation Yrotation
            JOINT RightForeArm
            {
              OFFSET 28.733 1.87905 2.64907
              CHANNELS 3 Zrotation Xrotation Yrotation
              JOINT RightHand
              {
                OFFSET 27.4588 0.290562 -0.101845
                CHANNELS 3 Zrotation Xrotation Yrotation
                End Site
                {
                  OFFSET 17.8396 -0.255518 -0.000602873
                }
              }
            }
          }
        }
      }
    }
  }
  JOINT LeftUpLeg
  {
    OFFSET -5.61296 -2.22332 -10.2353
    CHANNELS 3 Zrotation Xrotation Yrotation
    JOINT LeftLeg
    {
      OFFSET 2.56703 -44.7417 -7.93097
      CHANNELS 3 Zrotation Xrotation Yrotation
      JOINT LeftFoot
      {
        OFFSET 3.16933 -46.5642 -3.96578
        CHANNELS 3 Zrotation Xrotation Yrotation
        JOINT LeftToeBase
        {
          OFFSET 0.346054 -6.02161 12.8035
          CHANNELS 3 Zrotation Xrotation Yrotation
          End Site
          {
            OFFSET 0.134235 -1.35082 5.13018
          }
        }
      }
    }
  }
  JOINT RightUpLeg
  {
    OFFSET -5.7928 -1.72406 10.6446
    CHANNELS 3 Zrotation Xrotation Yrotation
    JOINT RightLeg
    {
      OFFSET -2.57161 -44.7178 -7.85259
      CHANNELS 3 Zrotation Xrotation Yrotation
      JOINT RightFoot
      {
        OFFSET -3.10148 -46.5936 -4.03391
        CHANNELS 3 Zrotation Xrotation Yrotation
        JOINT RightToeBase
        {
          OFFSET -0.0828122 -6.13587 12.8035
          CHANNELS 3 Zrotation Xrotation Yrotation
          End Site
          {
            OFFSET -0.131328 -1.35082 5.13018
          }
        }
      }
    }
  }
}
MOTION
Frames: 21
Frame Time: 0.03333333333333333
0.0000 93.1000 0.0000 71.2560 -26.7397 -2.4532 -71.2614 -0.0036 87.6999 114.5579 70.5023 -37.2574 5.9468 21.9491 1.9931 -113.3216 27.8719 156.4655 147.3822 66.0201 -109.4917 0.8592 -10.6190 -11.9497 -67.6618 33.9580 -149.0072 29.9351 -5.4835 -97.8357 0.3540 -0.1111 -0.2007 -3.0239 7.3860 44.3594 -128.7092 2.1024 75.9703 4.8800 -3.9664 52.6285 -0.4428 0.1066 -0.2393 -22.0467 23.6524 86.6548 -9.9515 64.8046 -11.1264 -0.9854 -11.8404 -1.2163 3.0470 -10.0109 10.6610 -27.8453 -16.6409 80.7407 2.6264 51.7485 4.9572 -3.0023 2.7502 -0.5687 1.3694 -14.9443 -3.1018 
0.0000 93.1000 0.0000 69.9606 -25.8331 -2.5850 -71.2160 0.2263 87.7141 114.2497 70.8867 -36.4830 5.7894 22.1061 2.7675 -112.7664 27.4623 155.0643 147.7781 66.8072 -108.9699 0.8607 -11.3182 -12.4680 -66.3725 34.5220 -146.9826 29.1603 -5.7647 -98.3776 0.3565 0.0733 -0.2077 -2.6826 7.3955 43.9452 -128.1903 1.6188 74.9683 5.6751 -4.3766 52.0869 -0.2119 -0.0991 0.0701 -21.8309 23.2289 85.5470 -9.5068 64.9073 -12.0391 -1.1546 -11.3181 -1.6080 3.4031 -10.3879 10.7212 -29.0540 -17.0086 79.0559 3.1355 51.0632 5.4160 -3.7042 2.4587 -0.0618 1.8068 -16.3119 -4.0714 
0.0000 93.1000 0.0000 68.9819 -25.6026 -1.4047 -71.1553 0.2181 87.8214 113.8562 71.1080 -35.1651 5.2864 22.1131 3.0751 -112.2186 27.9935 155.9222 146.7379 66.5164 -109.4962 1.0074 -11.0727 -12.7332 -65.7997 34.8417 -146.4656 28.8598 -5.0628 -98.6233 0.0895 -0.1051 -0.2623 -2.7626 6.9747 43.7267 -128.3306 1.0192 74.1684 4.9566 -4.5015 51.7314 -0.2441 0.0775 -0.1979 -22.0285 23.0015 84.6359 -9.3619 64.5421 -11.0576 -1.4478 -12.7598 -1.6125 3.2975 -9.9096 10.8068 -30.3076 -17.3555 77.5964 3.9049 50.4064 3.5018 -3.9068 0.8011 -0.1036 1.4746 -15.5462 -3.0022 
0.0000 93.1000 0.0000 69.0631 -26.3260 -1.2554 -71.1378 0.3900 87.9283 113.7746 71.4147 -35.5173 5.0664 22.1806 2.9102 -113.0372 28.6393 155.8447 145.7614 66.7616 -109.0379 1.2256 -11.0335 -13.0220 -65.9821 34.8214 -146.3282 28.3557 -5.2656 -99.4928 0.2426 -0.1531 -0.4001 -2.6595 6.7885 43.4375 -128.2726 0.4740 75.0477 5.9142 -4.5311 51.9614 0.0462 0.1298 -0.2090 -22.1588 23.3196 84.3229 -9.5008 65.2493 -11.6487 -1.5699 -14.4923 -1.8712 3.3082 -10.0089 11.4747 -30.3795 -17.4920 76.3161 3.0922 50.5397 2.1261 -5.0046 0.2063 0.2796 1.0808 -14.9385 -1.0664 
0.0000 93.1000 0.0000 68.5060 -26.1211 -3.0080 -71.0762 -0.2172 87.8643 113.2345 71.6580 -34.1927 4.6267 22.3585 2.0149 -112.9304 28.7417 154.5338 145.7825 66.8905 -108.6874 0.8618 -11.0406 -12.5110 -66.5509 35.1215 -146.5137 27.2228 -4.9756 -99.3665 -0.2846 0.1246 0.2279 -2.8289 7.0781 43.4656 -127.9039 0.4579 74.9635 6.0499 -5.4282 51.8251 -0.1598 -0.2098 -0.2138 -22.5633 23.0252 84.9346 -9.3686 65.2891 -10.5964 -1.4609 -14.5454 -1.8351 3.6561 -10.5281 10.4606 -30.1147 -17.4761 76.0330 2.6601 50.6310 2.7571 -4.2512 -0.4636 -0.3000 0.6020 -13.8583 1.6108 
0.0000 93.1000 0.0000 67.6527 -26.0504 -2.5521 -70.9698 -0.0470 87.9222 113.1075 71.9707 -34.5256 4.3910 22.3978 1.9232 -113.1259 28.6943 155.2547 147.5496 66.7312 -108.4062 0.9645 -11.1937 -12.6056 -66.9406 35.1507 -146.5999 27.1380 -5.2633 -99.5651 -0.4752 -0.0283 0.0087 -2.8170 7.1709 43.0640 -127.9618 -0.1711 75.0963 6.0167 -5.7257 51.9400 0.0857 0.0308 -0.0265 -23.1088 23.1016 85.6429 -9.8023 65.1983 -11.4928 -1.0492 -15.0978 -1.7782 4.1424 -11.0735 12.3612 -30.4111 -17.7444 76.1704 3.2656 50.2539 2.4971 -3.9414 -1.2173 -0.0920 0.4351 -13.6352 1.9154 
0.0000 93.1000 0.0000 68.1475 -26.1287 -3.2588 -71.1011 -0.2201 87.7980 113.1292 72.3000 -33.9059 4.2944 22.2812 2.1567 -113.3280 28.3046 155.6173 148.5922 66.7502 -109.5141 0.7848 -10.7657 -12.9489 -67.2460 35.0259 -146.7052 26.9853 -4.7342 -99.3578 -0.3150 0.2966 0.1097 -2.7200 7.1677 42.5598 -127.1389 -0.2147 76.2480 5.8257 -5.9574 51.7224 0.4130 -0.3452 0.3199 -23.7784 22.9215 86.0209 -10.3768 64.3517 -12.1456 -1.0039 -14.6374 -1.9234 4.3473 -13.3018 13.2829 -30.4160 -17.8360 76.7396 3.4860 50.5100 2.0870 -4.4263 -1.8720 0.1104 1.0150 -15.2586 0.9558 
0.0000 93.1000 0.0000 68.0600 -26.4152 -3.1024 -71.1038 -0.2284 87.7474 112.8504 71.8026 -32.6061 3.8206 22.3285 2.1274 -114.1692 29.1113 155.2268 146.8536 66.5837 -110.2868 0.8428 -10.5970 -12.9176 -67.6209 35.1181 -147.6648 26.0946 -4.8044 -99.4058 -0.0464 0.1408 -0.1995 -2.8110 7.2277 41.8026 -127.4735 -1.2964 76.0498 6.0366 -6.0388 52.7432 0.1897 -0.2106 0.1656 -24.0228 23.1350 86.7845 -9.7799 64.6882 -12.1162 -1.3676 -15.7235 -1.8645 4.6903 -13.5097 12.5837 -30.0951 -17.6512 77.4350 3.1613 50.5324 2.1799 -3.8890 -2.2158 0.0878 0.8428 -14.5961 2.0210 
0.0000 93.1000 0.0000 67.6635 -26.6466 -3.5176 -71.1326 0.1575 87.8430 111.0737 71.9848 -31.7423 3.9022 22.2235 2.1059 -114.1677 28.9913 156.7881 144.9559 66.2408 -108.4164 1.1398 -11.0478 -12.8682 -67.9510 34.8424 -147.3607 26.9314 -5.5137 -99.3308 0.2558 -0.0784 -0.3392 -2.6500 6.9411 41.0563 -128.1839 -2.2775 76.0326 5.7690 -5.4601 52.9426 0.1493 0.0160 0.3059 -24.5625 23.4042 87.3599 -9.6543 65.1992 -12.1197 -1.6840 -16.0668 -1.8331 4.6532 -14.1583 12.6014 -30.2495 -18.0176 76.9279 3.7841 51.4605 3.2639 -3.9050 -1.5575 0.1917 1.1298 -15.7099 1.3405 
0.0000 93.1000 0.0000 67.4661 -26.7429 -4.3149 -71.1473 0.0937 87.8136 109.9026 72.2211 -30.4676 4.4632 21.8970 1.9350 -114.2421 29.0962 156.5105 145.5329 66.0747 -108.5179 1.1714 -10.7841 -12.9295 -68.4088 35.0622 -147.3985 27.4119 -4.8116 -99.0342 0.2301 -0.2168 -0.2598 -2.9384 6.9623 41.0134 -128.2665 -1.1114 75.7583 5.2951 -5.5808 52.7329 -0.1711 0.2192 0.1281 -24.7244 22.9889 87.9858 -9.8231 65.3554 -12.3928 -1.5671 -17.6686 -1.6779 4.0135 -12.2155 11.5409 -30.0774 -18.0297 78.2918 3.4606 51.2740 3.3858 -2.6970 -1.6214 -0.1284 0.7766 -16.3813 -0.6117 
0.0000 93.1000 0.0000 67.2507 -27.2739 -4.2665 -71.1696 -0.0244 87.8506 109.1352 72.1162 -30.2872 4.1752 22.1093 2.2013 -114.9365 29.2916 157.2581 145.0007 66.4299 -108.5108 1.0047 -10.7184 -12.9177 -68.1975 35.0123 -148.3368 27.4023 -4.5297 -99.4258 0.2916 -0.0234 -0.3208 -2.8893 6.8733 41.0349 -127.9774 -1.1792 76.9126 5.9687 -5.2803 52.9386 -0.1660 0.0188 0.1938 -24.8211 22.7963 88.2033 -10.1238 65.1266 -11.7335 -1.8820 -17.8487 -1.8248 3.7849 -11.2675 11.7255 -30.3958 -18.0870 78.9501 2.9766 50.0534 3.4803 -1.9779 -2.8197 -0.2033 1.1996 -15.3621 -2.5967 
0.0000 93.1000 0.0000 66.5893 -26.7626 -4.1847 -71.1901 0.0143 87.8486 108.8839 71.1739 -28.9248 4.6373 21.8315 1.4927 -115.2597 29.3134 155.6011 145.3514 66.9441 -108.6721 1.1023 -10.2328 -12.5564 -67.9195 34.6985 -148.6466 28.2496 -5.0324 -99.3808 -0.1076 -0.1702 -0.1421 -2.9624 7.1240 41.2542 -128.1439 -1.0630 77.1677 5.6766 -4.8504 53.0711 0.0384 0.2037 -0.1595 -24.9708 22.8032 88.0458 -10.0541 64.8239 -12.7908 -1.6721 -18.6978 -1.6794 3.8375 -12.2314 12.4261 -30.1118 -18.3810 78.9821 3.0273 49.2557 4.5358 -2.5240 -2.0021 -0.4006 0.7584 -15.9358 -2.2284 
0.0000 93.1000 0.0000 66.0224 -26.6984 -5.4521 -71.0749 0.5954 87.9288 108.7426 70.9396 -28.4330 4.8123 22.0610 1.5678 -115.5110 29.1053 156.9086 145.4149 67.0527 -110.2599 1.3702 -10.1574 -12.6282 -68.1605 34.9086 -148.3420 28.0615 -4.6901 -99.3343 0.0530 -0.2065 -0.5603 -2.6044 6.8492 41.9664 -128.0410 -0.7839 76.9826 5.5902 -4.5161 53.6417 0.4384 0.1920 0.0107 -24.6231 22.7159 88.0438 -9.3056 65.0198 -12.1474 -1.3457 -19.4364 -2.1800 3.1975 -11.0819 11.3890 -30.1143 -17.9553 79.8431 2.8447 49.7538 3.1356 -1.6077 -2.5672 0.1365 0.5350 -14.5913 -1.9830 
0.0000 93.1000 0.0000 66.0802 -26.9586 -4.8215 -71.0364 0.2652 87.8861 107.9902 71.1593 -27.5759 4.9317 22.3073 1.3152 -115.4490 29.2347 156.8517 145.8065 66.8379 -108.9896 0.9984 -10.0467 -12.4191 -67.4108 35.8816 -148.5495 28.1362 -4.8992 -99.6178 0.0344 0.2514 -0.2527 -2.5388 6.9350 41.8182 -128.2077 -0.8768 76.9797 6.6029 -5.5996 53.8303 0.3577 -0.3054 0.4978 -24.9998 22.2021 88.4637 -10.2291 65.0696 -11.4454 -1.2103 -19.0849 -2.3953 3.3495 -10.5501 12.1464 -29.8159 -17.8001 80.1240 3.3280 49.3009 3.2861 -2.1185 -2.9355 0.1587 0.8354 -13.9919 -0.8288 
0.0000 93.1000 0.0000 66.2255 -27.1851 -5.0763 -70.9671 -0.1790 87.9576 107.8222 70.9324 -28.0725 4.6317 22.2779 1.3497 -116.1116 28.9771 157.6594 146.4487 66.9830 -109.7090 0.5990 -9.9368 -12.2196 -67.2174 36.0313 -148.3380 28.3092 -4.7999 -99.5568 -0.1161 0.4703 0.0417 -2.7788 7.0274 41.9547 -128.4150 -1.3393 76.5230 7.0086 -5.8076 54.9682 0.1137 -0.5873 0.2217 -25.2868 22.1565 87.9278 -10.1351 65.1057 -11.8438 -1.0743 -19.6881 -2.3068 3.3337 -10.6647 12.2559 -30.1065 -16.8474 80.0788 3.1504 48.5990 2.4151 -1.8937 -2.7824 -0.1823 1.4018 -14.0413 -0.9852 
0.0000 93.1000 0.0000 65.7964 -27.0703 -5.1166 -71.0991 -0.0766 87.8870 108.0620 71.0151 -27.7068 4.1337 22.0957 1.3701 -115.4682 29.0123 157.3546 146.9656 66.7579 -108.7333 0.8544 -9.8047 -12.5469 -67.7115 35.3963 -148.6180 28.3243 -4.6360 -99.3526 0.0067 0.1053 0.2254 -2.9943 7.1731 41.2743 -128.0123 -1.4383 76.6164 6.8428 -6.0649 54.8006 -0.0890 -0.1442 0.2588 -25.4436 21.9831 88.1783 -10.1089 65.2429 -11.2483 -1.2226 -19.6256 -1.9963 3.5343 -11.5975 12.7377 -30.4022 -17.0383 79.6637 2.1588 47.9674 2.1857 -1.9889 -2.7669 -0.1220 1.3052 -13.7667 0.7368 
0.0000 93.1000 0.0000 65.9610 -26.8336 -4.9562 -71.0952 0.1591 87.9888 108.7637 70.8491 -27.5109 4.4899 21.9912 1.2437 -115.3631 29.2815 156.2182 145.8021 66.4504 -108.7422 1.0663 -9.9222 -12.7531 -67.9599 35.6657 -148.4037 28.0676 -4.0582 -99.4053 0.1043 -0.0445 0.2443 -2.9180 7.2153 40.9114 -127.9770 -1.3530 76.0509 6.7637 -6.5362 54.6073 -0.2413 0.0421 0.0907 -24.7659 22.0465 88.1493 -10.5523 66.1900 -11.0615 -1.3100 -18.9051 -1.9516 3.0776 -11.6317 12.8833 -30.0938 -16.8450 79.8401 1.6508 48.0113 2.1067 -2.0514 -2.8377 0.0561 0.8174 -13.0703 0.6094 
0.0000 93.1000 0.0000 66.1570 -26.9074 -4.9839 -71.0780 -0.1669 87.8999 109.1947 70.7361 -27.8972 4.0660 22.1064 1.2420 -115.0085 29.2765 156.6241 146.1703 66.9051 -109.9895 0.7133 -9.7752 -12.3998 -67.3476 35.8424 -148.9162 27.8629 -4.3003 -99.0614 -0.2973 0.3578 0.0397 -2.8783 6.9909 41.0174 -128.2098 -1.2187 76.8531 6.8745 -6.2933 55.1357 0.0041 -0.3939 0.3418 -24.1023 22.0400 88.2935 -10.3362 66.3235 -9.9584 -1.2949 -18.7502 -2.2731 3.0362 -11.3199 12.3156 -29.9230 -16.6693 80.7999 2.0433 48.0111 2.3245 -1.1822 -3.1618 0.1895 1.1073 -12.5710 -0.7626 
0.0000 93.1000 0.0000 66.1346 -27.8358 -4.9639 -71.2163 0.4048 88.0298 108.9148 70.9632 -28.2181 3.8578 21.8040 0.8530 -115.2235 29.3706 156.1069 148.3968 67.2724 -111.1181 1.4823 -10.2679 -12.3039 -67.5184 35.6143 -149.4951 28.2540 -4.5797 -98.2907 -0.5525 -0.5977 0.0327 -3.1244 7.2205 41.1136 -128.3478 -0.6464 75.9346 6.9899 -6.7768 55.8419 0.0191 0.7682 -0.1311 -23.9083 22.1416 89.1815 -10.1242 66.5408 -9.9472 -1.0765 -19.6849 -1.5888 3.3530 -11.6500 12.2052 -29.9354 -16.6351 81.9243 1.7966 46.7579 2.0460 -1.0094 -3.1935 -0.0556 0.6173 -12.1978 0.2854 
0.0000 93.1000 0.0000 66.1220 -28.2085 -5.0799 -71.1327 -0.0581 87.9400 108.0603 71.6154 -27.6699 4.0445 22.0568 1.2601 -115.2333 30.0250 157.8325 146.0657 66.9656 -109.0792 0.9500 -10.3835 -12.9130 -67.8651 35.1979 -148.6858 27.9841 -4.9388 -98.2327 -0.4984 -0.0067 -0.0709 -3.0490 7.1339 40.8249 -128.0550 -0.9458 76.3840 7.4705 -6.0119 55.9348 0.2758 0.1013 0.0829 -24.1951 22.1096 89.1849 -10.0260 66.6874 -9.8165 -1.0551 -18.8198 -1.9345 2.8776 -11.9711 14.4249 -29.9954 -16.2891 81.7350 1.9180 45.8600 2.2791 -1.8869 -2.9926 0.0939 1.5194 -12.1836 -0.1660 
0.0000 93.1000 0.0000 66.1389 -29.1462 -6.0197 -71.2765 -0.4989 88.0255 108.0775 72.0446 -26.9664 4.2525 21.9841 1.3725 -115.2012 30.0312 157.1554 144.9020 66.8433 -108.6065 0.4482 -10.4049 -13.0958 -68.0884 34.8941 -148.5280 28.0680 -4.8553 -98.2283 -0.0369 0.7566 0.0100 -2.7910 7.1806 40.9988 -127.5496 -1.4133 77.1328 7.9454 -5.8202 56.6823 0.4824 -0.8198 0.3997 -25.0249 22.1708 89.2622 -9.7835 66.3317 -8.7209 -0.8980 -18.8737 -2.5855 2.6195 -10.7761 13.9581 -29.7055 -16.1822 81.8694 1.8396 45.2972 0.9673 -2.1932 -1.6797 0.2597 1.3371 -12.0347 0.9803 
